<svg version="1.1" id="Layer_1" xmlns="http://www.w3.org/2000/svg" xmlns:xlink="http://www.w3.org/1999/xlink" x="0px" y="0px"
	 width="100%" viewBox="0 0 600 600" enable-background="new 0 0 600 600" xml:space="preserve">
<path fill="#F3D55B" opacity="1.000000" stroke="none" 
	d="
M116.000000,601.000000 
	C96.979103,601.000000 77.958214,601.000000 58.797050,600.741882 
	C47.720070,594.435547 45.879322,584.529785 45.890110,573.043274 
	C46.049412,403.426941 46.048466,233.810287 45.906006,64.193886 
	C45.894814,50.869354 55.509949,40.398994 69.443085,40.928776 
	C78.591858,41.276642 87.766434,40.945747 97.271652,41.164139 
	C104.446350,41.260544 111.278862,41.111633 118.570503,40.979065 
	C145.641617,40.990398 172.253586,40.985386 198.933609,41.446148 
	C199.035675,62.574947 199.094086,83.237961 199.097702,103.900993 
	C199.102509,131.397415 199.311584,158.896957 198.963058,186.389206 
	C198.707092,206.582016 180.738022,226.035507 156.603363,224.594910 
	C133.347916,223.206787 118.037285,205.864334 117.972229,182.441269 
	C117.918076,162.943832 118.017265,143.445816 117.917038,123.948738 
	C117.882248,117.181931 113.644432,112.912392 107.530243,112.981110 
	C101.677414,113.046875 97.824310,117.202805 97.807327,123.902367 
	C97.754532,144.732681 97.588295,165.566788 97.899086,186.392944 
	C98.277802,211.771240 115.433426,234.245972 139.893387,242.110947 
	C164.227127,249.935349 191.310135,241.489807 206.715561,221.515152 
	C216.210739,209.203735 219.804993,195.165039 219.802551,179.924118 
	C219.795532,135.929565 219.795456,91.935028 219.813721,47.940483 
	C219.814697,45.614826 220.009842,43.289246 220.575836,40.979610 
	C324.816559,40.996944 428.596008,41.009182 532.375488,40.987686 
	C547.579651,40.984535 555.980774,50.155857 555.983948,64.688171 
	C556.011780,191.122589 556.000671,317.557007 555.992493,443.991425 
	C555.992371,445.986237 555.881042,447.981049 555.618958,450.274902 
	C554.967102,452.758148 554.518005,454.942352 554.031433,457.500977 
	C551.853943,466.553558 547.554138,474.004150 540.564575,479.568237 
	C527.393677,490.052887 512.690125,492.454926 497.540100,484.977966 
	C482.292023,477.452637 474.179688,464.653687 473.977417,447.327637 
	C473.910400,441.585938 473.966797,435.842773 473.966797,430.100311 
	C473.560577,429.915131 473.154358,429.729950 472.748169,429.544800 
	C472.207336,430.315338 471.679474,431.095367 471.123901,431.855164 
	C457.399475,450.625214 441.302734,467.177338 424.004913,482.649658 
	C396.414764,507.328094 366.048615,527.968628 333.161133,544.829590 
	C270.364960,577.024353 203.495148,594.420593 133.198212,599.127441 
	C127.449455,599.512329 121.732002,600.364807 116.000000,601.000000 
M143.274750,281.232666 
	C141.132706,277.662903 139.083008,274.033447 136.824905,270.538696 
	C134.084503,266.297455 130.143112,264.514740 125.213219,265.981262 
	C120.299454,267.442963 117.957985,271.027649 117.956375,276.113037 
	C117.945786,309.603149 117.886879,343.093658 118.074028,376.582703 
	C118.088463,379.165283 119.326241,382.167206 120.949547,384.219574 
	C123.721733,387.724457 127.912216,388.080811 131.908325,386.519867 
	C136.234161,384.830139 138.140717,381.297699 138.134735,376.645538 
	C138.109894,357.317963 138.124878,337.990326 138.145309,318.662689 
	C138.146927,317.134857 138.302170,315.607147 138.445007,313.004425 
	C139.746964,314.993652 140.407440,315.932068 140.996597,316.913300 
	C153.684418,338.044312 166.351593,359.187714 179.053619,380.310150 
	C182.716156,386.400604 186.822083,388.412262 192.126083,386.877991 
	C196.791611,385.528381 199.135406,381.648193 199.138840,375.024475 
	C199.155701,342.534027 199.162262,310.043610 199.134048,277.553162 
	C199.127487,270.003448 195.118134,265.357544 188.898819,265.470703 
	C182.860550,265.580566 178.994095,270.164124 178.962677,277.389832 
	C178.920670,287.053497 178.950348,296.717438 178.949951,306.381256 
	C178.949509,317.142029 178.949860,327.902832 178.949860,338.663605 
	C178.624161,338.772644 178.298477,338.881683 177.972778,338.990723 
	C166.543274,319.939362 155.113770,300.887970 143.274750,281.232666 
M440.501831,387.616455 
	C453.331238,387.616516 466.160675,387.627777 478.990021,387.603943 
	C480.817444,387.600555 482.661011,387.551056 484.468750,387.310028 
	C490.715057,386.476990 494.346924,382.384613 494.041382,376.657837 
	C493.744141,371.085663 489.521698,367.150879 483.271393,367.104218 
	C468.443298,366.993439 453.613861,367.073273 438.784973,367.050385 
	C437.020905,367.047638 435.257111,366.885345 433.526825,366.798676 
	C433.526825,356.559723 433.526825,346.848877 433.526825,336.752655 
	C437.114929,336.752655 440.264771,336.752838 443.414581,336.752594 
	C456.244080,336.751587 469.073975,336.808777 481.902954,336.725494 
	C488.606384,336.682007 492.940491,333.555756 493.911926,328.397888 
	C495.189301,321.615570 490.238007,316.231201 482.358551,316.175385 
	C467.863617,316.072693 453.367401,316.152496 438.871765,316.129730 
	C437.101288,316.126953 435.331055,315.961090 433.494263,315.867432 
	C433.494263,305.672363 433.494263,295.957886 433.494263,285.858246 
	C435.716339,285.858246 437.531036,285.858398 439.345734,285.858215 
	C453.674805,285.856750 468.004211,285.916321 482.332764,285.827850 
	C489.477325,285.783752 494.037323,281.678253 494.050629,275.620483 
	C494.063660,269.690704 489.753052,265.375763 482.928101,265.320557 
	C463.268677,265.161560 443.605957,265.142822 423.947052,265.332642 
	C416.713196,265.402496 412.918823,269.535919 412.908081,276.715088 
	C412.858490,309.871216 412.858215,343.027435 412.910034,376.183563 
	C412.920898,383.138397 416.135834,386.802094 423.023499,387.342804 
	C428.490112,387.771942 434.007965,387.549072 440.501831,387.616455 
M220.813568,287.650665 
	C220.491867,289.447845 219.894958,291.244324 219.890289,293.042328 
	C219.832138,315.372986 219.481583,337.712769 220.004913,360.031464 
	C220.329865,373.889618 232.474319,385.996460 246.341293,386.989532 
	C255.119431,387.618225 264.001282,387.635803 272.788574,387.115601 
	C288.443665,386.188873 300.629578,373.587952 300.864136,357.964996 
	C301.179352,336.969940 301.156219,315.963745 300.871765,294.967865 
	C300.668091,279.933319 289.381042,267.441467 274.356171,265.911041 
	C265.616608,265.020752 256.681396,264.944580 247.920929,265.622559 
	C234.518936,266.659729 225.493866,274.081848 220.813568,287.650665 
M361.993561,343.500000 
	C361.993561,324.408905 361.993561,305.317780 361.993561,285.848267 
	C368.934113,285.848267 375.084229,285.958069 381.228668,285.818604 
	C387.890259,285.667389 392.054626,281.856354 392.263763,276.023712 
	C392.483337,269.900696 388.442017,265.433990 381.601837,265.360626 
	C361.773682,265.148071 341.937225,265.067047 322.116150,265.496124 
	C318.964142,265.564362 314.892029,267.780548 312.949554,270.311584 
	C308.031860,276.719330 313.036926,285.355408 321.645630,285.765686 
	C328.095123,286.073090 334.571045,285.826355 341.733185,285.826355 
	C341.733185,288.334106 341.733154,290.283539 341.733215,292.232971 
	C341.734314,319.898834 341.714569,347.564758 341.749664,375.230560 
	C341.759613,383.071014 345.435852,387.316010 351.924896,387.235107 
	C358.364105,387.154877 361.952667,382.838776 361.982574,374.999115 
	C362.021332,364.832886 361.993042,354.666382 361.993561,343.500000 
z"/>
<path fill="#000000" opacity="1.000000" stroke="none" 
	d="
M555.821594,449.975861 
	C555.881042,447.981049 555.992371,445.986237 555.992493,443.991425 
	C556.000671,317.557007 556.011780,191.122589 555.983948,64.688171 
	C555.980774,50.155857 547.579651,40.984535 532.375488,40.987686 
	C428.596008,41.009182 324.816559,40.996944 220.526688,40.548042 
	C219.402756,36.593731 219.139572,32.980602 218.113037,29.599213 
	C214.333176,17.148363 206.458893,8.344628 194.216049,3.550328 
	C193.286957,3.186493 192.729965,1.872386 192.000000,0.999999 
	C328.287598,1.000000 464.575195,1.000000 600.931396,1.000000 
	C600.931396,200.887146 600.931396,400.774323 600.931396,601.000000 
	C502.979370,601.000000 404.958344,601.000000 306.210266,600.614197 
	C306.331421,599.821594 307.145599,599.167542 308.033020,599.045288 
	C320.489502,597.330261 332.979523,595.846252 345.414795,593.992981 
	C368.244019,590.590698 390.545502,584.928833 412.599579,578.153442 
	C444.323792,568.407349 474.874786,555.902588 504.224915,540.396667 
	C517.688538,533.283691 531.341797,526.631714 540.716431,513.851990 
	C548.374023,503.412872 553.486084,492.033722 555.434387,478.898712 
	C555.815613,469.100250 555.818604,459.538055 555.821594,449.975861 
z"/>
<path fill="#000000" opacity="1.000000" stroke="none" 
	d="
M96.929459,40.918823 
	C87.766434,40.945747 78.591858,41.276642 69.443085,40.928776 
	C55.509949,40.398994 45.894814,50.869354 45.906006,64.193886 
	C46.048466,233.810287 46.049412,403.426941 45.890110,573.043274 
	C45.879322,584.529785 47.720070,594.435547 58.328392,600.741882 
	C39.010647,601.000000 20.021296,601.000000 1.015971,601.000000 
	C1.015971,401.122742 1.015971,201.245453 1.015971,1.000000 
	C42.020161,1.000000 83.041420,1.000000 124.863510,1.273916 
	C124.756104,2.207692 123.936272,3.085688 122.926476,3.494901 
	C106.096375,10.315170 98.433029,23.469870 96.929459,40.918823 
z"/>
<path fill="#F29C1F" opacity="1.000000" stroke="none" 
	d="
M555.056152,479.134979 
	C553.486084,492.033722 548.374023,503.412872 540.716431,513.851990 
	C531.341797,526.631714 517.688538,533.283691 504.224915,540.396667 
	C474.874786,555.902588 444.323792,568.407349 412.599579,578.153442 
	C390.545502,584.928833 368.244019,590.590698 345.414795,593.992981 
	C332.979523,595.846252 320.489502,597.330261 308.033020,599.045288 
	C307.145599,599.167542 306.331421,599.821594 305.741577,600.614197 
	C242.979111,601.000000 179.958206,601.000000 116.468658,601.000000 
	C121.732002,600.364807 127.449455,599.512329 133.198212,599.127441 
	C203.495148,594.420593 270.364960,577.024353 333.161133,544.829590 
	C366.048615,527.968628 396.414764,507.328094 424.004913,482.649658 
	C441.302734,467.177338 457.399475,450.625214 471.123901,431.855164 
	C471.679474,431.095367 472.207336,430.315338 472.748169,429.544800 
	C473.154358,429.729950 473.560577,429.915131 473.966797,430.100311 
	C473.966797,435.842773 473.910400,441.585938 473.977417,447.327637 
	C474.179688,464.653687 482.292023,477.452637 497.540100,484.977966 
	C512.690125,492.454926 527.393677,490.052887 540.564575,479.568237 
	C547.554138,474.004150 551.853943,466.553558 554.273743,457.819153 
	C554.707458,459.542725 554.971252,461.321136 554.994873,463.102722 
	C555.065613,468.446136 555.042542,473.790802 555.056152,479.134979 
z"/>
<path fill="#96A6A4" opacity="1.000000" stroke="none" 
	d="
M97.271652,41.164139 
	C98.433029,23.469870 106.096375,10.315170 122.926476,3.494901 
	C123.936272,3.085688 124.756104,2.207692 125.332169,1.273916 
	C147.020889,1.000000 169.041794,1.000000 191.531342,0.999999 
	C192.729965,1.872386 193.286957,3.186493 194.216049,3.550328 
	C206.458893,8.344628 214.333176,17.148363 218.113037,29.599213 
	C219.139572,32.980602 219.402756,36.593731 220.065460,40.532066 
	C220.009842,43.289246 219.814697,45.614826 219.813721,47.940483 
	C219.795456,91.935028 219.795532,135.929565 219.802551,179.924118 
	C219.804993,195.165039 216.210739,209.203735 206.715561,221.515152 
	C191.310135,241.489807 164.227127,249.935349 139.893387,242.110947 
	C115.433426,234.245972 98.277802,211.771240 97.899086,186.392944 
	C97.588295,165.566788 97.754532,144.732681 97.807327,123.902367 
	C97.824310,117.202805 101.677414,113.046875 107.530243,112.981110 
	C113.644432,112.912392 117.882248,117.181931 117.917038,123.948738 
	C118.017265,143.445816 117.918076,162.943832 117.972229,182.441269 
	C118.037285,205.864334 133.347916,223.206787 156.603363,224.594910 
	C180.738022,226.035507 198.707092,206.582016 198.963058,186.389206 
	C199.311584,158.896957 199.102509,131.397415 199.097702,103.900993 
	C199.094086,83.237961 199.035675,62.574947 198.981384,41.058525 
	C198.657593,39.456387 198.246796,38.732487 198.066849,37.955151 
	C195.706909,27.760300 188.595901,22.001450 178.305130,21.999498 
	C164.647644,21.996908 150.989700,21.942629 137.333206,22.059332 
	C135.279236,22.076883 133.112778,22.614237 131.202805,23.404959 
	C123.402336,26.634308 119.558891,32.933731 118.111366,40.962723 
	C111.278862,41.111633 104.446350,41.260544 97.271652,41.164139 
z"/>
<path fill="#894C9D" opacity="1.000000" stroke="none" 
	d="
M143.479507,281.534637 
	C155.113770,300.887970 166.543274,319.939362 177.972778,338.990723 
	C178.298477,338.881683 178.624161,338.772644 178.949860,338.663605 
	C178.949860,327.902832 178.949509,317.142029 178.949951,306.381256 
	C178.950348,296.717438 178.920670,287.053497 178.962677,277.389832 
	C178.994095,270.164124 182.860550,265.580566 188.898819,265.470703 
	C195.118134,265.357544 199.127487,270.003448 199.134048,277.553162 
	C199.162262,310.043610 199.155701,342.534027 199.138840,375.024475 
	C199.135406,381.648193 196.791611,385.528381 192.126083,386.877991 
	C186.822083,388.412262 182.716156,386.400604 179.053619,380.310150 
	C166.351593,359.187714 153.684418,338.044312 140.996597,316.913300 
	C140.407440,315.932068 139.746964,314.993652 138.445007,313.004425 
	C138.302170,315.607147 138.146927,317.134857 138.145309,318.662689 
	C138.124878,337.990326 138.109894,357.317963 138.134735,376.645538 
	C138.140717,381.297699 136.234161,384.830139 131.908325,386.519867 
	C127.912216,388.080811 123.721733,387.724457 120.949547,384.219574 
	C119.326241,382.167206 118.088463,379.165283 118.074028,376.582703 
	C117.886879,343.093658 117.945786,309.603149 117.956375,276.113037 
	C117.957985,271.027649 120.299454,267.442963 125.213219,265.981262 
	C130.143112,264.514740 134.084503,266.297455 136.824905,270.538696 
	C139.083008,274.033447 141.132706,277.662903 143.479507,281.534637 
z"/>
<path fill="#8B4D9C" opacity="1.000000" stroke="none" 
	d="
M440.002441,387.616089 
	C434.007965,387.549072 428.490112,387.771942 423.023499,387.342804 
	C416.135834,386.802094 412.920898,383.138397 412.910034,376.183563 
	C412.858215,343.027435 412.858490,309.871216 412.908081,276.715088 
	C412.918823,269.535919 416.713196,265.402496 423.947052,265.332642 
	C443.605957,265.142822 463.268677,265.161560 482.928101,265.320557 
	C489.753052,265.375763 494.063660,269.690704 494.050629,275.620483 
	C494.037323,281.678253 489.477325,285.783752 482.332764,285.827850 
	C468.004211,285.916321 453.674805,285.856750 439.345734,285.858215 
	C437.531036,285.858398 435.716339,285.858246 433.494263,285.858246 
	C433.494263,295.957886 433.494263,305.672363 433.494263,315.867432 
	C435.331055,315.961090 437.101288,316.126953 438.871765,316.129730 
	C453.367401,316.152496 467.863617,316.072693 482.358551,316.175385 
	C490.238007,316.231201 495.189301,321.615570 493.911926,328.397888 
	C492.940491,333.555756 488.606384,336.682007 481.902954,336.725494 
	C469.073975,336.808777 456.244080,336.751587 443.414581,336.752594 
	C440.264771,336.752838 437.114929,336.752655 433.526825,336.752655 
	C433.526825,346.848877 433.526825,356.559723 433.526825,366.798676 
	C435.257111,366.885345 437.020905,367.047638 438.784973,367.050385 
	C453.613861,367.073273 468.443298,366.993439 483.271393,367.104218 
	C489.521698,367.150879 493.744141,371.085663 494.041382,376.657837 
	C494.346924,382.384613 490.715057,386.476990 484.468750,387.310028 
	C482.661011,387.551056 480.817444,387.600555 478.990021,387.603943 
	C466.160675,387.627777 453.331238,387.616516 440.002441,387.616089 
z"/>
<path fill="#8A4C9C" opacity="1.000000" stroke="none" 
	d="
M220.908768,287.247253 
	C225.493866,274.081848 234.518936,266.659729 247.920929,265.622559 
	C256.681396,264.944580 265.616608,265.020752 274.356171,265.911041 
	C289.381042,267.441467 300.668091,279.933319 300.871765,294.967865 
	C301.156219,315.963745 301.179352,336.969940 300.864136,357.964996 
	C300.629578,373.587952 288.443665,386.188873 272.788574,387.115601 
	C264.001282,387.635803 255.119431,387.618225 246.341293,386.989532 
	C232.474319,385.996460 220.329865,373.889618 220.004913,360.031464 
	C219.481583,337.712769 219.832138,315.372986 219.890289,293.042328 
	C219.894958,291.244324 220.491867,289.447845 220.908768,287.247253 
M253.681366,367.069427 
	C258.675140,367.068207 263.669312,367.106659 268.662598,367.056793 
	C276.728394,366.976288 280.514160,363.280884 280.691193,355.093811 
	C280.831482,348.604919 280.726532,342.110626 280.725555,335.618744 
	C280.723694,322.967865 280.829315,310.315674 280.674561,297.666626 
	C280.576050,289.617615 276.836334,285.965973 269.058289,285.866333 
	C263.566071,285.795990 258.072083,285.831085 252.579056,285.855530 
	C243.322388,285.896759 239.983948,289.231262 239.971161,298.539062 
	C239.945770,317.015991 239.951080,335.492981 239.968033,353.969940 
	C239.976852,363.595581 243.183411,366.858643 253.681366,367.069427 
z"/>
<path fill="#8A4D9C" opacity="1.000000" stroke="none" 
	d="
M361.993561,344.000000 
	C361.993042,354.666382 362.021332,364.832886 361.982574,374.999115 
	C361.952667,382.838776 358.364105,387.154877 351.924896,387.235107 
	C345.435852,387.316010 341.759613,383.071014 341.749664,375.230560 
	C341.714569,347.564758 341.734314,319.898834 341.733215,292.232971 
	C341.733154,290.283539 341.733185,288.334106 341.733185,285.826355 
	C334.571045,285.826355 328.095123,286.073090 321.645630,285.765686 
	C313.036926,285.355408 308.031860,276.719330 312.949554,270.311584 
	C314.892029,267.780548 318.964142,265.564362 322.116150,265.496124 
	C341.937225,265.067047 361.773682,265.148071 381.601837,265.360626 
	C388.442017,265.433990 392.483337,269.900696 392.263763,276.023712 
	C392.054626,281.856354 387.890259,285.667389 381.228668,285.818604 
	C375.084229,285.958069 368.934113,285.848267 361.993561,285.848267 
	C361.993561,305.317780 361.993561,324.408905 361.993561,344.000000 
z"/>
<path fill="#000000" opacity="1.000000" stroke="none" 
	d="
M118.570503,40.979065 
	C119.558891,32.933731 123.402336,26.634308 131.202805,23.404959 
	C133.112778,22.614237 135.279236,22.076883 137.333206,22.059332 
	C150.989700,21.942629 164.647644,21.996908 178.305130,21.999498 
	C188.595901,22.001450 195.706909,27.760300 198.066849,37.955151 
	C198.246796,38.732487 198.657593,39.456387 198.913330,40.592751 
	C172.253586,40.985386 145.641617,40.990398 118.570503,40.979065 
z"/>
<path fill="#F3B940" opacity="1.000000" stroke="none" 
	d="
M555.434448,478.898712 
	C555.042542,473.790802 555.065613,468.446136 554.994873,463.102722 
	C554.971252,461.321136 554.707458,459.542725 554.311218,457.444702 
	C554.518005,454.942352 554.967102,452.758148 555.618896,450.274902 
	C555.818604,459.538055 555.815613,469.100250 555.434448,478.898712 
z"/>
<path fill="#F2D45C" opacity="1.000000" stroke="none" 
	d="
M253.211380,367.069244 
	C243.183411,366.858643 239.976852,363.595581 239.968033,353.969940 
	C239.951080,335.492981 239.945770,317.015991 239.971161,298.539062 
	C239.983948,289.231262 243.322388,285.896759 252.579056,285.855530 
	C258.072083,285.831085 263.566071,285.795990 269.058289,285.866333 
	C276.836334,285.965973 280.576050,289.617615 280.674561,297.666626 
	C280.829315,310.315674 280.723694,322.967865 280.725555,335.618744 
	C280.726532,342.110626 280.831482,348.604919 280.691193,355.093811 
	C280.514160,363.280884 276.728394,366.976288 268.662598,367.056793 
	C263.669312,367.106659 258.675140,367.068207 253.211380,367.069244 
z"/>
</svg>